<svg width="512" height="512" viewBox="0 0 512 512" fill="none" xmlns="http://www.w3.org/2000/svg">
<g clip-path="url(#clip0_312_100)">
<path d="M121.5 1.49993C64.4996 9.49993 18.5996 50.4999 4.59961 106C3.19961 111.2 1.69961 119.5 1.09961 124.5C-0.400391 136.9 -0.400391 375.1 1.09961 387.5C7.99961 445.8 49.4996 493.2 106 507.4C111.2 508.8 119.6 510.3 124.5 510.9C136.9 512.4 375.1 512.4 387.5 510.9C440 504.7 483.9 470.4 503 420.8C506.1 412.7 509.7 397.5 510.9 387.5C512.4 375.1 512.4 136.9 510.9 124.5C504.7 71.9999 470.4 28.0999 420.8 8.99993C412.7 5.89993 397.5 2.29993 387.5 1.09993C373.8 -0.600067 133.4 -0.200067 121.5 1.49993ZM417.6 66.6999C430.5 70.9999 440.9 81.3999 445.3 94.3999C447.4 100.6 447.5 112.8 445.5 119.4C437.3 146.5 405 158.1 381.5 142.4C367.7 133.3 360.4 117 362.9 101.1C365.5 85.0999 376.4 71.9999 391.3 66.8999C398.1 64.5999 411 64.3999 417.6 66.6999ZM278 117.5C307.7 122.4 333.9 135.8 355 157C381.9 183.8 396 217.9 396 256C396 294.1 381.9 328.2 355 355C328.2 381.9 294.1 396 256 396C217.9 396 183.8 381.9 157 355C130.1 328.2 116 294.1 116 256C116 217.9 130.1 183.8 157 157C177.7 136.2 204 122.6 233 117.5C243.3 115.8 267.6 115.7 278 117.5Z" fill="#BA431D"/>
<path d="M398.899 96.5C393.099 99.6 390.899 108.1 394.399 113.5C401.199 123.9 416.999 119.3 416.999 107C416.999 98 406.799 92.2 398.899 96.5Z" fill="#BA431D"/>
<path d="M236.6 147.6C184.5 157 146 203 146 256C146 323.9 207.9 376.1 274.6 364.5C347.9 351.7 387.7 271.6 353.7 205.5C331.7 163 283.5 139.1 236.6 147.6Z" fill="#BA431D"/>
</g>
<defs>
<clipPath id="clip0_312_100">
<rect width="512" height="512" fill="white"/>
</clipPath>
</defs>
</svg>
