<svg width="512" height="512" viewBox="0 0 512 512" fill="none" xmlns="http://www.w3.org/2000/svg">
<path d="M237.5 0.599944C198.9 4.29994 169.8 12.6999 138.2 28.9999C89.9996 53.9999 51.0996 93.6999 26.9996 142.5C17.6996 161.2 13.3996 172.7 8.49961 191.1C2.49961 214.3 0.699609 228.4 0.599609 254C0.599609 266.8 1.09961 280.6 1.79961 286C7.29961 327 20.0996 362.3 41.5996 395.3L48.7996 406.4L32.8996 453.3C24.0996 479.2 17.0996 500.4 17.2996 500.6C17.4996 500.8 39.2996 494 65.8996 485.5C92.4996 477 114.6 470 115.1 470C115.5 470 119.6 472.3 124.2 475.2C128.8 478 138.4 483.2 145.5 486.6C210.2 517.5 284.1 520.2 350.3 493.9C425.3 464.2 482.9 399.1 503.5 320.9C509.8 296.9 511.3 283.8 511.3 256C511.3 228.2 509.8 215.1 503.5 191.1C479.3 99.3999 405.8 28.0999 313 6.39994C297.4 2.79994 281.2 0.899944 261.5 0.599944C250.5 0.399944 239.7 0.399944 237.5 0.599944ZM176.5 119.2C178.2 120.1 180.5 122.5 181.7 124.7C184.6 130 209 188.5 209.7 192.1C210.6 196.6 206.1 204.3 196.2 215.5C185.8 227.2 183.6 230.9 184.5 235.1C186.2 242.7 209.3 273.4 223.6 286.9C245.7 307.8 279.1 327.7 294 328.8C301.7 329.3 304.4 327.2 316.2 311.6C321.5 304.5 327.1 297.4 328.8 295.8C332.6 291.9 338.3 291.1 344.8 293.5C353 296.6 403.3 321.1 406.9 323.8L410.3 326.3L409.7 336.9C408.3 364.1 398.7 378.2 373.5 390.5C349.5 402.2 330.7 401.9 294 389.2C244.6 372.1 218.5 355.8 183 320.1C165.2 302.3 152.6 287.2 138.2 266.5C114.4 232.5 105.3 206.2 108 179.5C110.2 158.1 117.7 142.3 132.8 127.2C140.1 119.9 149.6 116.9 164 117.4C170.1 117.6 174.6 118.2 176.5 119.2Z" fill="#BA431D"/>
</svg>
