<svg width="341" height="512" viewBox="0 0 341 512" fill="none" xmlns="http://www.w3.org/2000/svg">
<path d="M156.94 0.256682C114.54 4.45668 79.0397 20.9567 49.9397 50.1567C9.3397 90.6567 -7.9603 148.457 3.4397 204.757C5.9397 216.957 10.3397 230.457 15.5397 241.557C17.7397 246.257 51.5397 308.057 90.7397 378.957C165.24 513.957 163.84 511.657 170.44 511.657C177.04 511.657 175.64 513.957 250.24 378.957C289.34 307.957 323.24 246.157 325.34 241.557C343.94 201.557 345.84 153.257 330.54 111.957C321.54 87.8567 308.84 67.9567 290.94 50.1567C265.04 24.1567 234.94 8.65668 197.94 2.05668C189.94 0.656682 164.44 -0.543318 156.94 0.256682ZM178.94 85.6567C200.44 88.0567 217.84 96.7567 232.64 112.457C248.84 129.657 256.24 149.957 255.14 174.057C254.44 188.357 252.84 194.957 246.94 207.357C236.34 229.157 217.64 245.057 193.94 252.257C185.94 254.657 183.34 254.957 170.44 254.957C157.54 254.957 154.94 254.657 146.94 252.257C129.84 247.057 115.14 237.357 104.34 223.857C97.8397 215.857 90.5397 201.557 87.9397 192.157C85.4397 182.957 84.8397 163.657 86.8397 154.057C94.1397 117.757 124.14 89.9567 160.44 85.7567C164.54 85.2567 168.44 84.8567 168.94 84.7567C169.54 84.7567 174.04 85.1567 178.94 85.6567Z" fill="#BA431D"/>
</svg>
