<svg width="512" height="512" viewBox="0 0 512 512" fill="none" xmlns="http://www.w3.org/2000/svg">
<path d="M97.9877 0.54511C84.8877 2.14511 62.4877 8.24511 54.0877 12.5451C34.3877 22.5451 8.68769 65.3451 1.78769 99.8451C-0.612309 111.745 -0.612309 137.245 1.88769 148.845C5.58769 165.945 13.8877 190.745 29.4877 231.045C47.6877 278.145 81.3877 325.745 133.488 377.845C178.488 422.945 217.988 452.745 258.488 472.245C272.688 479.045 278.288 481.345 311.188 493.445C351.888 508.445 364.088 511.345 387.488 511.245C406.088 511.245 414.388 509.945 430.888 504.145C460.088 494.045 490.988 472.645 498.788 457.245C503.888 447.245 509.688 424.545 510.988 409.745C512.488 393.445 512.488 393.445 469.488 369.845C435.888 351.445 424.588 344.845 413.588 337.545C395.488 325.445 389.788 323.845 380.788 328.045C374.688 330.945 362.288 343.345 349.388 359.345C337.288 374.545 325.388 386.845 320.588 389.345C312.588 393.445 305.588 390.945 277.288 373.945C241.188 352.345 220.688 336.845 197.688 313.945C174.888 291.145 159.088 270.245 137.388 234.045C120.388 205.745 117.888 198.745 121.988 190.745C124.488 185.945 136.788 174.045 151.988 161.845C167.988 149.045 180.488 136.445 183.388 130.445C187.488 121.545 185.788 115.745 173.788 97.7451C166.488 86.7451 159.788 75.2451 141.488 41.8451C123.088 8.34511 120.688 4.74511 115.188 1.54511C112.188 -0.0548904 105.888 -0.45489 97.9877 0.54511Z" fill="#BA431D"/>
</svg>
